solid AutoSave_Robô_Omni_3_Eixos_1
facet normal 0.9238795325112372 0.38268343236520946 -0.0
  outer loop
    vertex 137.3291980633796 138.9026107362708 9.99999999999999
    vertex 137.4800477013616 138.5384274943757 11.999999999999991
    vertex 137.4800477013616 138.5384274943757 9.99999999999999
  endloop
endfacet
facet normal 0.9238795325112372 0.38268343236520946 -0.0
  outer loop
    vertex 137.4800477013616 138.5384274943757 11.999999999999991
    vertex 137.3291980633796 138.9026107362708 9.99999999999999
    vertex 137.3291980633796 138.9026107362708 11.999999999999991
  endloop
endfacet
facet normal 0.38268343236468416 -0.9238795325114548 0.0
  outer loop
    vertex 138.1326958917135 140.64252642949702 11.999999999999991
    vertex 138.0327460610761 140.60112585409016 9.99999999999999
    vertex 138.1326958917135 140.64252642949702 9.99999999999999
  endloop
endfacet
facet normal 0.38268343236468416 -0.9238795325114548 0.0
  outer loop
    vertex 138.0327460610761 140.60112585409016 9.99999999999999
    vertex 138.1326958917135 140.64252642949702 11.999999999999991
    vertex 138.0327460610761 140.60112585409016 11.999999999999991
  endloop
endfacet
facet normal 0.991444861373814 0.13052619222002515 -0.0
  outer loop
    vertex 137.2777460610761 139.29342749437566 9.99999999999999
    vertex 137.3291980633796 138.9026107362708 11.999999999999991
    vertex 137.3291980633796 138.9026107362708 9.99999999999999
  endloop
endfacet
facet normal 0.991444861373814 0.13052619222002515 -0.0
  outer loop
    vertex 137.3291980633796 138.9026107362708 11.999999999999991
    vertex 137.2777460610761 139.29342749437566 9.99999999999999
    vertex 137.2777460610761 139.29342749437566 11.999999999999991
  endloop
endfacet
facet normal 0.9914448613738062 -0.1305261922200844 -0.0
  outer loop
    vertex 137.3291980633796 139.68424425248034 9.99999999999999
    vertex 137.2777460610761 139.29342749437566 11.999999999999991
    vertex 137.2777460610761 139.29342749437566 9.99999999999999
  endloop
endfacet
facet normal 0.9914448613738062 -0.1305261922200844 -0.0
  outer loop
    vertex 137.2777460610761 139.29342749437566 11.999999999999991
    vertex 137.3291980633796 139.68424425248034 9.99999999999999
    vertex 137.3291980633796 139.68424425248034 11.999999999999991
  endloop
endfacet
facet normal 0.38268343236486463 -0.92387953251138 0.0
  outer loop
    vertex 138.3969293029713 140.75197549207203 11.999999999999991
    vertex 138.1326958917135 140.64252642949702 9.99999999999999
    vertex 138.3969293029713 140.75197549207203 9.99999999999999
  endloop
endfacet
facet normal 0.38268343236486463 -0.92387953251138 0.0
  outer loop
    vertex 138.1326958917135 140.64252642949702 9.99999999999999
    vertex 138.3969293029713 140.75197549207203 11.999999999999991
    vertex 138.1326958917135 140.64252642949702 11.999999999999991
  endloop
endfacet
facet normal 0.9238795325112875 -0.38268343236508795 -0.0
  outer loop
    vertex 137.4800477013616 140.0484274943756 9.99999999999999
    vertex 137.3291980633796 139.68424425248034 11.999999999999991
    vertex 137.3291980633796 139.68424425248034 9.99999999999999
  endloop
endfacet
facet normal 0.9238795325112875 -0.38268343236508795 -0.0
  outer loop
    vertex 137.3291980633796 139.68424425248034 11.999999999999991
    vertex 137.4800477013616 140.0484274943756 9.99999999999999
    vertex 137.4800477013616 140.0484274943756 11.999999999999991
  endloop
endfacet
facet normal 0.6087614290087536 -0.7933533402912099 0.0
  outer loop
    vertex 138.0327460610761 140.60112585409016 11.999999999999991
    vertex 137.72001482148443 140.36115873396733 9.99999999999999
    vertex 138.0327460610761 140.60112585409016 9.99999999999999
  endloop
endfacet
facet normal 0.6087614290087536 -0.7933533402912099 0.0
  outer loop
    vertex 137.72001482148443 140.36115873396733 9.99999999999999
    vertex 138.0327460610761 140.60112585409016 11.999999999999991
    vertex 137.72001482148443 140.36115873396733 11.999999999999991
  endloop
endfacet
facet normal 0.13052619222011103 0.9914448613738026 -0.0
  outer loop
    vertex 138.3969293029713 137.83487949667906 11.999999999999991
    vertex 138.7877460610761 137.78342749437553 9.99999999999999
    vertex 138.3969293029713 137.83487949667906 9.99999999999999
  endloop
endfacet
facet normal 0.13052619222011103 0.9914448613738026 -0.0
  outer loop
    vertex 138.7877460610761 137.78342749437553 9.99999999999999
    vertex 138.3969293029713 137.83487949667906 11.999999999999991
    vertex 138.7877460610761 137.78342749437553 11.999999999999991
  endloop
endfacet
facet normal -0.9914448613738062 -0.1305261922200844 0.0
  outer loop
    vertex 140.24629405877258 139.68424425248034 11.999999999999991
    vertex 140.29774606107608 139.29342749437566 9.99999999999999
    vertex 140.29774606107608 139.29342749437566 11.999999999999991
  endloop
endfacet
facet normal -0.9914448613738062 -0.1305261922200844 0.0
  outer loop
    vertex 140.29774606107608 139.29342749437566 9.99999999999999
    vertex 140.24629405877258 139.68424425248034 11.999999999999991
    vertex 140.24629405877258 139.68424425248034 9.99999999999999
  endloop
endfacet
facet normal -0.9238795325112372 0.38268343236520935 0.0
  outer loop
    vertex 140.24629405877258 138.9026107362708 11.999999999999991
    vertex 140.09544442079059 138.5384274943757 9.99999999999999
    vertex 140.09544442079059 138.5384274943757 11.999999999999991
  endloop
endfacet
facet normal -0.9238795325112372 0.38268343236520935 0.0
  outer loop
    vertex 140.09544442079059 138.5384274943757 9.99999999999999
    vertex 140.24629405877258 138.9026107362708 11.999999999999991
    vertex 140.24629405877258 138.9026107362708 9.99999999999999
  endloop
endfacet
facet normal 0.49999999999999745 0.8660254037844404 -0.0
  outer loop
    vertex 136.2558241229108 144.50801005667498 11.999999999999991
    vertex 144.56966799924137 139.70801005667502 9.99999999999999
    vertex 136.2558241229108 144.50801005667498 9.99999999999999
  endloop
endfacet
facet normal 0.49999999999999745 0.8660254037844404 -0.0
  outer loop
    vertex 144.56966799924137 139.70801005667502 9.99999999999999
    vertex 136.2558241229108 144.50801005667498 11.999999999999991
    vertex 144.56966799924137 139.70801005667502 11.999999999999991
  endloop
endfacet
facet normal -0.3826834323646105 0.9238795325114854 -0.0
  outer loop
    vertex 139.44279623043866 137.94432855925425 11.999999999999991
    vertex 139.5427460610761 137.9857291346611 9.99999999999999
    vertex 139.44279623043866 137.94432855925425 9.99999999999999
  endloop
endfacet
facet normal -0.3826834323646105 0.9238795325114854 -0.0
  outer loop
    vertex 139.5427460610761 137.9857291346611 9.99999999999999
    vertex 139.44279623043866 137.94432855925425 11.999999999999991
    vertex 139.5427460610761 137.9857291346611 11.999999999999991
  endloop
endfacet
facet normal -0.9238795325112372 0.3826834323652093 0.0
  outer loop
    vertex 130.95299278858334 122.90614076625879 11.999999999999972
    vertex 130.80214315060132 122.54195752436368 9.999999999999972
    vertex 130.80214315060132 122.54195752436368 11.999999999999972
  endloop
endfacet
facet normal -0.9238795325112372 0.3826834323652093 0.0
  outer loop
    vertex 130.80214315060132 122.54195752436368 9.999999999999972
    vertex 130.95299278858334 122.90614076625879 11.999999999999972
    vertex 130.95299278858334 122.90614076625879 9.999999999999972
  endloop
endfacet
facet normal -0.6087614290087536 -0.7933533402912099 0.0
  outer loop
    vertex 139.85547730066776 140.36115873396733 11.999999999999991
    vertex 139.5427460610761 140.60112585409016 9.99999999999999
    vertex 139.85547730066776 140.36115873396733 9.99999999999999
  endloop
endfacet
facet normal -0.6087614290087536 -0.7933533402912099 0.0
  outer loop
    vertex 139.5427460610761 140.60112585409016 9.99999999999999
    vertex 139.85547730066776 140.36115873396733 11.999999999999991
    vertex 139.5427460610761 140.60112585409016 11.999999999999991
  endloop
endfacet
facet normal -0.7933533402912949 0.608761429008643 0.0
  outer loop
    vertex 130.80214315060132 122.54195752436368 11.999999999999972
    vertex 130.56217603047853 122.22922628477193 9.999999999999972
    vertex 130.56217603047853 122.22922628477193 11.999999999999972
  endloop
endfacet
facet normal -0.7933533402912949 0.608761429008643 0.0
  outer loop
    vertex 130.56217603047853 122.22922628477193 9.999999999999972
    vertex 130.80214315060132 122.54195752436368 11.999999999999972
    vertex 130.80214315060132 122.54195752436368 9.999999999999972
  endloop
endfacet
facet normal -0.7933533402912949 0.608761429008643 0.0
  outer loop
    vertex 140.09544442079059 138.5384274943757 11.999999999999991
    vertex 139.85547730066776 138.22569625478394 9.99999999999999
    vertex 139.85547730066776 138.22569625478394 11.999999999999991
  endloop
endfacet
facet normal -0.7933533402912949 0.608761429008643 0.0
  outer loop
    vertex 139.85547730066776 138.22569625478394 9.99999999999999
    vertex 140.09544442079059 138.5384274943757 11.999999999999991
    vertex 140.09544442079059 138.5384274943757 9.99999999999999
  endloop
endfacet
facet normal 0.13052619222010364 -0.9914448613738037 0.0
  outer loop
    vertex 129.49444479088683 124.8069575243636 11.999999999999972
    vertex 129.10362803278204 124.75550552206008 9.999999999999972
    vertex 129.49444479088683 124.8069575243636 9.999999999999972
  endloop
endfacet
facet normal 0.13052619222010364 -0.9914448613738037 0.0
  outer loop
    vertex 129.10362803278204 124.75550552206008 9.999999999999972
    vertex 129.49444479088683 124.8069575243636 11.999999999999972
    vertex 129.10362803278204 124.75550552206008 11.999999999999972
  endloop
endfacet
facet normal 0.7933533402912949 -0.608761429008643 -0.0
  outer loop
    vertex 128.42671355129514 124.36468876395539 9.999999999999972
    vertex 128.1867464311723 124.05195752436363 11.999999999999972
    vertex 128.1867464311723 124.05195752436363 9.999999999999972
  endloop
endfacet
facet normal 0.7933533402912949 -0.608761429008643 -0.0
  outer loop
    vertex 128.1867464311723 124.05195752436363 11.999999999999972
    vertex 128.42671355129514 124.36468876395539 9.999999999999972
    vertex 128.42671355129514 124.36468876395539 11.999999999999972
  endloop
endfacet
facet normal 0.13052619222011103 -0.9914448613738026 0.0
  outer loop
    vertex 138.7877460610761 140.80342749437557 11.999999999999991
    vertex 138.3969293029713 140.75197549207203 9.99999999999999
    vertex 138.7877460610761 140.80342749437557 9.99999999999999
  endloop
endfacet
facet normal 0.13052619222011103 -0.9914448613738026 0.0
  outer loop
    vertex 138.3969293029713 140.75197549207203 9.99999999999999
    vertex 138.7877460610761 140.80342749437557 11.999999999999991
    vertex 138.3969293029713 140.75197549207203 11.999999999999991
  endloop
endfacet
facet normal 1.1512602712277747e-15 1.2890496618649928e-15 -1.0
  outer loop
    vertex 131.6218495266952 134.48173061504633 8.999999999999982
    vertex 133.8359511418329 130.3166671055851 8.999999999999979
    vertex 130.3718495266952 132.31666710558517 8.999999999999979
  endloop
endfacet
facet normal 1.1512602712277747e-15 1.2890496618649928e-15 -1.0
  outer loop
    vertex 133.8359511418329 130.3166671055851 8.999999999999979
    vertex 131.6218495266952 134.48173061504633 8.999999999999982
    vertex 135.08595114183296 132.48173061504625 8.999999999999986
  endloop
endfacet
facet normal 0.9238795325113447 -0.3826834323649498 -0.0
  outer loop
    vertex 128.1867464311723 124.05195752436363 9.999999999999972
    vertex 128.03589679319035 123.68777428246835 11.999999999999972
    vertex 128.03589679319035 123.68777428246835 9.999999999999972
  endloop
endfacet
facet normal 0.9238795325113447 -0.3826834323649498 -0.0
  outer loop
    vertex 128.03589679319035 123.68777428246835 11.999999999999972
    vertex 128.1867464311723 124.05195752436363 9.999999999999972
    vertex 128.1867464311723 124.05195752436363 11.999999999999972
  endloop
endfacet
facet normal -0.3826834323654591 0.923879532511134 -0.0
  outer loop
    vertex 139.1785628191809 137.83487949667906 11.999999999999991
    vertex 139.44279623043866 137.94432855925425 9.99999999999999
    vertex 139.1785628191809 137.83487949667906 9.99999999999999
  endloop
endfacet
facet normal -0.3826834323654591 0.923879532511134 -0.0
  outer loop
    vertex 139.44279623043866 137.94432855925425 9.99999999999999
    vertex 139.1785628191809 137.83487949667906 11.999999999999991
    vertex 139.44279623043866 137.94432855925425 11.999999999999991
  endloop
endfacet
facet normal -0.7933533402912949 -0.608761429008643 0.0
  outer loop
    vertex 139.85547730066776 140.36115873396733 11.999999999999991
    vertex 140.09544442079059 140.0484274943756 9.99999999999999
    vertex 140.09544442079059 140.0484274943756 11.999999999999991
  endloop
endfacet
facet normal -0.7933533402912949 -0.608761429008643 0.0
  outer loop
    vertex 140.09544442079059 140.0484274943756 9.99999999999999
    vertex 139.85547730066776 140.36115873396733 11.999999999999991
    vertex 139.85547730066776 140.36115873396733 9.99999999999999
  endloop
endfacet
facet normal 0.7933533402912949 -0.608761429008643 -0.0
  outer loop
    vertex 137.72001482148443 140.36115873396733 9.99999999999999
    vertex 137.4800477013616 140.0484274943756 11.999999999999991
    vertex 137.4800477013616 140.0484274943756 9.99999999999999
  endloop
endfacet
facet normal 0.7933533402912949 -0.608761429008643 -0.0
  outer loop
    vertex 137.4800477013616 140.0484274943756 11.999999999999991
    vertex 137.72001482148443 140.36115873396733 9.99999999999999
    vertex 137.72001482148443 140.36115873396733 11.999999999999991
  endloop
endfacet
facet normal -0.6087614290087536 0.7933533402912099 -0.0
  outer loop
    vertex 139.5427460610761 137.9857291346611 11.999999999999991
    vertex 139.85547730066776 138.22569625478394 9.99999999999999
    vertex 139.5427460610761 137.9857291346611 9.99999999999999
  endloop
endfacet
facet normal -0.6087614290087536 0.7933533402912099 -0.0
  outer loop
    vertex 139.85547730066776 138.22569625478394 9.99999999999999
    vertex 139.5427460610761 137.9857291346611 11.999999999999991
    vertex 139.85547730066776 138.22569625478394 11.999999999999991
  endloop
endfacet
facet normal -0.991444861373814 0.13052619222002515 0.0
  outer loop
    vertex 140.29774606107608 139.29342749437566 11.999999999999991
    vertex 140.24629405877258 138.9026107362708 9.99999999999999
    vertex 140.24629405877258 138.9026107362708 11.999999999999991
  endloop
endfacet
facet normal -0.991444861373814 0.13052619222002515 0.0
  outer loop
    vertex 140.24629405877258 138.9026107362708 9.99999999999999
    vertex 140.29774606107608 139.29342749437566 11.999999999999991
    vertex 140.29774606107608 139.29342749437566 9.99999999999999
  endloop
endfacet
facet normal -0.9238795325112875 -0.3826834323650879 0.0
  outer loop
    vertex 140.09544442079059 140.0484274943756 11.999999999999991
    vertex 140.24629405877258 139.68424425248034 9.99999999999999
    vertex 140.24629405877258 139.68424425248034 11.999999999999991
  endloop
endfacet
facet normal -0.9238795325112875 -0.3826834323650879 0.0
  outer loop
    vertex 140.24629405877258 139.68424425248034 9.99999999999999
    vertex 140.09544442079059 140.0484274943756 11.999999999999991
    vertex 140.09544442079059 140.0484274943756 9.99999999999999
  endloop
endfacet
facet normal 0.38268343236471897 -0.9238795325114404 0.0
  outer loop
    vertex 129.10362803278204 124.75550552206008 11.999999999999972
    vertex 128.84615325811166 124.64885597842277 9.999999999999972
    vertex 129.10362803278204 124.75550552206008 9.999999999999972
  endloop
endfacet
facet normal 0.38268343236471897 -0.9238795325114404 0.0
  outer loop
    vertex 128.84615325811166 124.64885597842277 9.999999999999972
    vertex 129.10362803278204 124.75550552206008 11.999999999999972
    vertex 128.84615325811166 124.64885597842277 11.999999999999972
  endloop
endfacet
facet normal -0.6087614290087536 0.79335334029121 -0.0
  outer loop
    vertex 130.24944479088686 121.98925916464911 11.999999999999972
    vertex 130.56217603047853 122.22922628477193 9.999999999999972
    vertex 130.24944479088686 121.98925916464911 9.999999999999972
  endloop
endfacet
facet normal -0.6087614290087536 0.79335334029121 -0.0
  outer loop
    vertex 130.56217603047853 122.22922628477193 9.999999999999972
    vertex 130.24944479088686 121.98925916464911 11.999999999999972
    vertex 130.56217603047853 122.22922628477193 11.999999999999972
  endloop
endfacet
facet normal -0.3826834323648354 -0.9238795325113921 0.0
  outer loop
    vertex 139.5427460610761 140.60112585409016 11.999999999999991
    vertex 139.1785628191809 140.75197549207203 9.99999999999999
    vertex 139.5427460610761 140.60112585409016 9.99999999999999
  endloop
endfacet
facet normal -0.3826834323648354 -0.9238795325113921 0.0
  outer loop
    vertex 139.1785628191809 140.75197549207203 9.99999999999999
    vertex 139.5427460610761 140.60112585409016 11.999999999999991
    vertex 139.1785628191809 140.75197549207203 11.999999999999991
  endloop
endfacet
facet normal -0.3826834323650469 0.9238795325113045 -0.0
  outer loop
    vertex 130.142736323662 121.94505907030454 11.999999999999972
    vertex 130.24944479088686 121.98925916464911 9.999999999999972
    vertex 130.142736323662 121.94505907030454 9.999999999999972
  endloop
endfacet
facet normal -0.3826834323650469 0.9238795325113045 -0.0
  outer loop
    vertex 130.24944479088686 121.98925916464911 9.999999999999972
    vertex 130.142736323662 121.94505907030454 11.999999999999972
    vertex 130.24944479088686 121.98925916464911 11.999999999999972
  endloop
endfacet
facet normal 0.1305261922200962 0.9914448613738046 -0.0
  outer loop
    vertex 129.103628032782 121.83840952666706 11.999999999999972
    vertex 129.49444479088683 121.78695752436353 9.999999999999972
    vertex 129.103628032782 121.83840952666706 9.999999999999972
  endloop
endfacet
facet normal 0.1305261922200962 0.9914448613738046 -0.0
  outer loop
    vertex 129.49444479088683 121.78695752436353 9.999999999999972
    vertex 129.103628032782 121.83840952666706 11.999999999999972
    vertex 129.49444479088683 121.78695752436353 11.999999999999972
  endloop
endfacet
facet normal -0.9914448613738136 -0.13052619222002815 0.0
  outer loop
    vertex 130.95299278858334 123.68777428246835 11.999999999999972
    vertex 131.00444479088682 123.29695752436366 9.999999999999972
    vertex 131.00444479088682 123.29695752436366 11.999999999999972
  endloop
endfacet
facet normal -0.9914448613738136 -0.13052619222002815 0.0
  outer loop
    vertex 131.00444479088682 123.29695752436366 9.999999999999972
    vertex 130.95299278858334 123.68777428246835 11.999999999999972
    vertex 130.95299278858334 123.68777428246835 9.999999999999972
  endloop
endfacet
facet normal 0.7933533402912949 0.608761429008643 -0.0
  outer loop
    vertex 128.1867464311723 122.54195752436368 9.999999999999972
    vertex 128.42671355129514 122.22922628477193 11.999999999999972
    vertex 128.42671355129514 122.22922628477193 9.999999999999972
  endloop
endfacet
facet normal 0.7933533402912949 0.608761429008643 -0.0
  outer loop
    vertex 128.42671355129514 122.22922628477193 11.999999999999972
    vertex 128.1867464311723 122.54195752436368 9.999999999999972
    vertex 128.1867464311723 122.54195752436368 11.999999999999972
  endloop
endfacet
facet normal 0.9238795325112777 0.3826834323651117 -0.0
  outer loop
    vertex 128.03589679319035 122.90614076625879 9.999999999999972
    vertex 128.1867464311723 122.54195752436368 11.999999999999972
    vertex 128.1867464311723 122.54195752436368 9.999999999999972
  endloop
endfacet
facet normal 0.9238795325112777 0.3826834323651117 -0.0
  outer loop
    vertex 128.1867464311723 122.54195752436368 11.999999999999972
    vertex 128.03589679319035 122.90614076625879 9.999999999999972
    vertex 128.03589679319035 122.90614076625879 11.999999999999972
  endloop
endfacet
facet normal 0.6087614290087261 0.7933533402912311 -0.0
  outer loop
    vertex 128.42671355129514 122.22922628477193 11.999999999999972
    vertex 128.7394447908868 121.98925916464911 9.999999999999972
    vertex 128.42671355129514 122.22922628477193 9.999999999999972
  endloop
endfacet
facet normal 0.6087614290087261 0.7933533402912311 -0.0
  outer loop
    vertex 128.7394447908868 121.98925916464911 9.999999999999972
    vertex 128.42671355129514 122.22922628477193 11.999999999999972
    vertex 128.7394447908868 121.98925916464911 11.999999999999972
  endloop
endfacet
facet normal 0.3826834323652059 0.9238795325112388 -0.0
  outer loop
    vertex 138.0327460610761 137.9857291346611 11.999999999999991
    vertex 138.3969293029713 137.83487949667906 9.99999999999999
    vertex 138.0327460610761 137.9857291346611 9.99999999999999
  endloop
endfacet
facet normal 0.3826834323652059 0.9238795325112388 -0.0
  outer loop
    vertex 138.3969293029713 137.83487949667906 9.99999999999999
    vertex 138.0327460610761 137.9857291346611 11.999999999999991
    vertex 138.3969293029713 137.83487949667906 11.999999999999991
  endloop
endfacet
facet normal -0.7933533402912949 -0.608761429008643 0.0
  outer loop
    vertex 130.56217603047853 124.36468876395539 11.999999999999972
    vertex 130.80214315060132 124.05195752436363 9.999999999999972
    vertex 130.80214315060132 124.05195752436363 11.999999999999972
  endloop
endfacet
facet normal -0.7933533402912949 -0.608761429008643 0.0
  outer loop
    vertex 130.80214315060132 124.05195752436363 9.999999999999972
    vertex 130.56217603047853 124.36468876395539 11.999999999999972
    vertex 130.56217603047853 124.36468876395539 9.999999999999972
  endloop
endfacet
facet normal -0.1305261922200962 0.9914448613738046 -0.0
  outer loop
    vertex 138.7877460610761 137.78342749437553 11.999999999999991
    vertex 139.1785628191809 137.83487949667906 9.99999999999999
    vertex 138.7877460610761 137.78342749437553 9.99999999999999
  endloop
endfacet
facet normal -0.1305261922200962 0.9914448613738046 -0.0
  outer loop
    vertex 139.1785628191809 137.83487949667906 9.99999999999999
    vertex 138.7877460610761 137.78342749437553 11.999999999999991
    vertex 139.1785628191809 137.83487949667906 11.999999999999991
  endloop
endfacet
facet normal -0.6087614290084654 -0.793353340291431 0.0
  outer loop
    vertex 130.56217603047853 124.36468876395539 11.999999999999972
    vertex 130.24944479088686 124.60465588407803 9.999999999999972
    vertex 130.56217603047853 124.36468876395539 9.999999999999972
  endloop
endfacet
facet normal -0.6087614290084654 -0.793353340291431 0.0
  outer loop
    vertex 130.24944479088686 124.60465588407803 9.999999999999972
    vertex 130.56217603047853 124.36468876395539 11.999999999999972
    vertex 130.24944479088686 124.60465588407803 11.999999999999972
  endloop
endfacet
facet normal -0.8660254037844364 0.5000000000000043 1.8723291109133902e-16
  outer loop
    vertex 136.2558241229108 144.50801005667498 11.999999999999991
    vertex 123.75582412291072 122.85737496206413 9.999999999999972
    vertex 123.75582412291072 122.85737496206413 11.999999999999972
  endloop
endfacet
facet normal -0.8660254037844364 0.5000000000000043 1.8723291109133902e-16
  outer loop
    vertex 123.75582412291072 122.85737496206413 9.999999999999972
    vertex 136.2558241229108 144.50801005667498 11.999999999999991
    vertex 136.2558241229108 144.50801005667498 9.99999999999999
  endloop
endfacet
facet normal 0.7933533402913223 0.608761429008607 -0.0
  outer loop
    vertex 137.4800477013616 138.5384274943757 9.99999999999999
    vertex 137.7200148214844 138.22569625478394 11.999999999999991
    vertex 137.7200148214844 138.22569625478394 9.99999999999999
  endloop
endfacet
facet normal 0.7933533402913223 0.608761429008607 -0.0
  outer loop
    vertex 137.7200148214844 138.22569625478394 11.999999999999991
    vertex 137.4800477013616 138.5384274943757 9.99999999999999
    vertex 137.4800477013616 138.5384274943757 11.999999999999991
  endloop
endfacet
facet normal -0.1305261922200962 -0.9914448613738046 0.0
  outer loop
    vertex 139.1785628191809 140.75197549207203 11.999999999999991
    vertex 138.7877460610761 140.80342749437557 9.99999999999999
    vertex 139.1785628191809 140.75197549207203 9.99999999999999
  endloop
endfacet
facet normal -0.1305261922200962 -0.9914448613738046 0.0
  outer loop
    vertex 138.7877460610761 140.80342749437557 9.99999999999999
    vertex 139.1785628191809 140.75197549207203 11.999999999999991
    vertex 138.7877460610761 140.80342749437557 11.999999999999991
  endloop
endfacet
facet normal -0.13052619222010364 0.9914448613738037 -0.0
  outer loop
    vertex 129.49444479088683 121.78695752436353 11.999999999999972
    vertex 129.88526154899165 121.83840952666706 9.999999999999972
    vertex 129.49444479088683 121.78695752436353 9.999999999999972
  endloop
endfacet
facet normal -0.13052619222010364 0.9914448613738037 -0.0
  outer loop
    vertex 129.88526154899165 121.83840952666706 9.999999999999972
    vertex 129.49444479088683 121.78695752436353 11.999999999999972
    vertex 129.88526154899165 121.83840952666706 11.999999999999972
  endloop
endfacet
facet normal 0.9914448613737987 -0.13052619222014064 -0.0
  outer loop
    vertex 128.03589679319035 123.68777428246835 9.999999999999972
    vertex 127.98444479088683 123.29695752436366 11.999999999999972
    vertex 127.98444479088683 123.29695752436366 9.999999999999972
  endloop
endfacet
facet normal 0.9914448613737987 -0.13052619222014064 -0.0
  outer loop
    vertex 127.98444479088683 123.29695752436366 11.999999999999972
    vertex 128.03589679319035 123.68777428246835 9.999999999999972
    vertex 128.03589679319035 123.68777428246835 11.999999999999972
  endloop
endfacet
facet normal 0.38268343236522623 0.9238795325112305 -0.0
  outer loop
    vertex 128.7394447908868 121.98925916464911 11.999999999999972
    vertex 129.103628032782 121.83840952666706 9.999999999999972
    vertex 128.7394447908868 121.98925916464911 9.999999999999972
  endloop
endfacet
facet normal 0.38268343236522623 0.9238795325112305 -0.0
  outer loop
    vertex 129.103628032782 121.83840952666706 9.999999999999972
    vertex 128.7394447908868 121.98925916464911 11.999999999999972
    vertex 129.103628032782 121.83840952666706 11.999999999999972
  endloop
endfacet
facet normal -0.9238795325113043 -0.3826834323650476 0.0
  outer loop
    vertex 130.80214315060132 124.05195752436363 11.999999999999972
    vertex 130.95299278858334 123.68777428246835 9.999999999999972
    vertex 130.95299278858334 123.68777428246835 11.999999999999972
  endloop
endfacet
facet normal -0.9238795325113043 -0.3826834323650476 0.0
  outer loop
    vertex 130.95299278858334 123.68777428246835 9.999999999999972
    vertex 130.80214315060132 124.05195752436363 11.999999999999972
    vertex 130.80214315060132 124.05195752436363 9.999999999999972
  endloop
endfacet
facet normal 1.1279865930191766e-15 1.9537300893656465e-15 -1.0
  outer loop
    vertex 131.6218495266952 134.48173061504633 9.999999999999982
    vertex 133.8359511418329 130.3166671055851 9.999999999999977
    vertex 130.3718495266952 132.31666710558517 9.999999999999977
  endloop
endfacet
facet normal 1.1279865930191766e-15 1.9537300893656465e-15 -1.0
  outer loop
    vertex 133.8359511418329 130.3166671055851 9.999999999999977
    vertex 131.6218495266952 134.48173061504633 9.999999999999982
    vertex 135.08595114183296 132.48173061504625 9.999999999999982
  endloop
endfacet
facet normal 0.608761429008726 0.7933533402912311 -0.0
  outer loop
    vertex 137.7200148214844 138.22569625478394 11.999999999999991
    vertex 138.0327460610761 137.9857291346611 9.99999999999999
    vertex 137.7200148214844 138.22569625478394 9.99999999999999
  endloop
endfacet
facet normal 0.608761429008726 0.7933533402912311 -0.0
  outer loop
    vertex 138.0327460610761 137.9857291346611 9.99999999999999
    vertex 137.7200148214844 138.22569625478394 11.999999999999991
    vertex 138.0327460610761 137.9857291346611 11.999999999999991
  endloop
endfacet
facet normal -0.9914448613738215 0.13052619221996892 0.0
  outer loop
    vertex 131.00444479088682 123.29695752436366 11.999999999999972
    vertex 130.95299278858334 122.90614076625879 9.999999999999972
    vertex 130.95299278858334 122.90614076625879 11.999999999999972
  endloop
endfacet
facet normal -0.9914448613738215 0.13052619221996892 0.0
  outer loop
    vertex 130.95299278858334 122.90614076625879 9.999999999999972
    vertex 131.00444479088682 123.29695752436366 11.999999999999972
    vertex 131.00444479088682 123.29695752436366 9.999999999999972
  endloop
endfacet
facet normal -0.49999999999999933 -0.866025403784439 0.0
  outer loop
    vertex 131.9830654588629 118.10737496206413 11.999999999999972
    vertex 123.75582412291072 122.85737496206413 9.999999999999972
    vertex 131.9830654588629 118.10737496206413 9.999999999999972
  endloop
endfacet
facet normal -0.49999999999999933 -0.866025403784439 0.0
  outer loop
    vertex 123.75582412291072 122.85737496206413 9.999999999999972
    vertex 131.9830654588629 118.10737496206413 11.999999999999972
    vertex 123.75582412291072 122.85737496206413 11.999999999999972
  endloop
endfacet
facet normal 0.8660254037844364 -0.500000000000004 2.198772841119542e-18
  outer loop
    vertex 135.08595114183296 132.48173061504625 8.999999999999986
    vertex 133.8359511418329 130.3166671055851 9.999999999999977
    vertex 133.8359511418329 130.3166671055851 8.999999999999979
  endloop
endfacet
facet normal 0.8660254037844364 -0.500000000000004 2.198772841119542e-18
  outer loop
    vertex 133.8359511418329 130.3166671055851 9.999999999999977
    vertex 135.08595114183296 132.48173061504625 8.999999999999986
    vertex 135.08595114183296 132.48173061504625 9.999999999999982
  endloop
endfacet
facet normal 0.8618288130257127 -0.5071992675849321 -9.874102997924974e-18
  outer loop
    vertex 141.31966799924137 134.07884493207615 9.99999999999999
    vertex 135.2330654588629 123.73654008666301 11.999999999999972
    vertex 135.2330654588629 123.73654008666301 9.999999999999972
  endloop
endfacet
facet normal 0.8618288130257127 -0.5071992675849321 -9.874102997924974e-18
  outer loop
    vertex 135.2330654588629 123.73654008666301 11.999999999999972
    vertex 141.31966799924137 134.07884493207615 9.99999999999999
    vertex 141.31966799924137 134.07884493207615 11.999999999999991
  endloop
endfacet
facet normal 0.9914448613738066 0.1305261922200814 -0.0
  outer loop
    vertex 127.98444479088683 123.29695752436366 9.999999999999972
    vertex 128.03589679319035 122.90614076625879 11.999999999999972
    vertex 128.03589679319035 122.90614076625879 9.999999999999972
  endloop
endfacet
facet normal 0.9914448613738066 0.1305261922200814 -0.0
  outer loop
    vertex 128.03589679319035 122.90614076625879 11.999999999999972
    vertex 127.98444479088683 123.29695752436366 9.999999999999972
    vertex 127.98444479088683 123.29695752436366 11.999999999999972
  endloop
endfacet
facet normal 0.8660254037844389 -0.49999999999999983 -0.0
  outer loop
    vertex 144.56966799924137 139.70801005667502 9.99999999999999
    vertex 141.31966799924137 134.07884493207615 11.999999999999991
    vertex 141.31966799924137 134.07884493207615 9.99999999999999
  endloop
endfacet
facet normal 0.8660254037844389 -0.49999999999999983 -0.0
  outer loop
    vertex 141.31966799924137 134.07884493207615 11.999999999999991
    vertex 144.56966799924137 139.70801005667502 9.99999999999999
    vertex 144.56966799924137 139.70801005667502 11.999999999999991
  endloop
endfacet
facet normal -0.5000000000000167 -0.866025403784429 0.0
  outer loop
    vertex 133.8359511418329 130.3166671055851 9.999999999999977
    vertex 130.3718495266952 132.31666710558517 8.999999999999979
    vertex 133.8359511418329 130.3166671055851 8.999999999999979
  endloop
endfacet
facet normal -0.5000000000000167 -0.866025403784429 0.0
  outer loop
    vertex 130.3718495266952 132.31666710558517 8.999999999999979
    vertex 133.8359511418329 130.3166671055851 9.999999999999977
    vertex 130.3718495266952 132.31666710558517 9.999999999999977
  endloop
endfacet
facet normal 3.783969759828994e-16 6.504722338815067e-16 -1.0
  outer loop
    vertex 136.2558241229108 144.50801005667498 9.99999999999999
    vertex 137.3291980633796 139.68424425248034 9.99999999999999
    vertex 137.2777460610761 139.29342749437566 9.99999999999999
  endloop
endfacet
facet normal 3.783969759828994e-16 6.504722338815067e-16 -1.0
  outer loop
    vertex 137.3291980633796 139.68424425248034 9.99999999999999
    vertex 136.2558241229108 144.50801005667498 9.99999999999999
    vertex 137.4800477013616 140.0484274943756 9.99999999999999
  endloop
endfacet
facet normal 3.783969759828994e-16 6.504722338815067e-16 -1.0
  outer loop
    vertex 137.4800477013616 140.0484274943756 9.99999999999999
    vertex 136.2558241229108 144.50801005667498 9.99999999999999
    vertex 137.72001482148443 140.36115873396733 9.99999999999999
  endloop
endfacet
facet normal 3.783969759828994e-16 6.504722338815067e-16 -1.0
  outer loop
    vertex 137.72001482148443 140.36115873396733 9.99999999999999
    vertex 136.2558241229108 144.50801005667498 9.99999999999999
    vertex 138.0327460610761 140.60112585409016 9.99999999999999
  endloop
endfacet
facet normal 3.783969759828994e-16 6.504722338815067e-16 -1.0
  outer loop
    vertex 138.0327460610761 140.60112585409016 9.99999999999999
    vertex 136.2558241229108 144.50801005667498 9.99999999999999
    vertex 138.3969293029713 140.75197549207203 9.99999999999999
  endloop
endfacet
facet normal 3.783969759828994e-16 6.504722338815067e-16 -1.0
  outer loop
    vertex 138.3969293029713 140.75197549207203 9.99999999999999
    vertex 136.2558241229108 144.50801005667498 9.99999999999999
    vertex 138.7877460610761 140.80342749437557 9.99999999999999
  endloop
endfacet
facet normal 3.783969759828994e-16 6.504722338815067e-16 -1.0
  outer loop
    vertex 138.7877460610761 140.80342749437557 9.99999999999999
    vertex 136.2558241229108 144.50801005667498 9.99999999999999
    vertex 139.1785628191809 140.75197549207203 9.99999999999999
  endloop
endfacet
facet normal 3.783969759828994e-16 6.504722338815067e-16 -1.0
  outer loop
    vertex 139.1785628191809 140.75197549207203 9.99999999999999
    vertex 136.2558241229108 144.50801005667498 9.99999999999999
    vertex 144.56966799924137 139.70801005667502 9.99999999999999
  endloop
endfacet
facet normal 3.783969759828994e-16 6.504722338815067e-16 -1.0
  outer loop
    vertex 138.0327460610761 140.60112585409016 9.99999999999999
    vertex 138.3969293029713 140.75197549207203 9.99999999999999
    vertex 138.1326958917135 140.64252642949702 9.99999999999999
  endloop
endfacet
facet normal 3.783969759828994e-16 6.504722338815067e-16 -1.0
  outer loop
    vertex 139.1785628191809 140.75197549207203 9.99999999999999
    vertex 144.56966799924137 139.70801005667502 9.99999999999999
    vertex 139.5427460610761 140.60112585409016 9.99999999999999
  endloop
endfacet
facet normal 3.783969759828994e-16 6.504722338815067e-16 -1.0
  outer loop
    vertex 139.5427460610761 140.60112585409016 9.99999999999999
    vertex 144.56966799924137 139.70801005667502 9.99999999999999
    vertex 139.85547730066776 140.36115873396733 9.99999999999999
  endloop
endfacet
facet normal 3.783969759828994e-16 6.504722338815067e-16 -1.0
  outer loop
    vertex 139.85547730066776 140.36115873396733 9.99999999999999
    vertex 144.56966799924137 139.70801005667502 9.99999999999999
    vertex 140.09544442079059 140.0484274943756 9.99999999999999
  endloop
endfacet
facet normal 3.783969759828994e-16 6.504722338815067e-16 -1.0
  outer loop
    vertex 140.09544442079059 140.0484274943756 9.99999999999999
    vertex 144.56966799924137 139.70801005667502 9.99999999999999
    vertex 140.24629405877258 139.68424425248034 9.99999999999999
  endloop
endfacet
facet normal 3.783969759828994e-16 6.504722338815067e-16 -1.0
  outer loop
    vertex 140.24629405877258 139.68424425248034 9.99999999999999
    vertex 144.56966799924137 139.70801005667502 9.99999999999999
    vertex 140.29774606107608 139.29342749437566 9.99999999999999
  endloop
endfacet
facet normal 3.783969759828994e-16 6.504722338815067e-16 -1.0
  outer loop
    vertex 140.29774606107608 139.29342749437566 9.99999999999999
    vertex 144.56966799924137 139.70801005667502 9.99999999999999
    vertex 141.31966799924137 134.07884493207615 9.99999999999999
  endloop
endfacet
facet normal 3.783969759828994e-16 6.504722338815067e-16 -1.0
  outer loop
    vertex 123.75582412291072 122.85737496206413 9.999999999999972
    vertex 128.03589679319035 123.68777428246835 9.999999999999972
    vertex 127.98444479088683 123.29695752436366 9.999999999999972
  endloop
endfacet
facet normal 3.783969759828994e-16 6.504722338815067e-16 -1.0
  outer loop
    vertex 128.03589679319035 123.68777428246835 9.999999999999972
    vertex 123.75582412291072 122.85737496206413 9.999999999999972
    vertex 130.3718495266952 132.31666710558517 9.999999999999977
  endloop
endfacet
facet normal 3.783969759828994e-16 6.504722338815067e-16 -1.0
  outer loop
    vertex 130.3718495266952 132.31666710558517 9.999999999999977
    vertex 123.75582412291072 122.85737496206413 9.999999999999972
    vertex 136.2558241229108 144.50801005667498 9.99999999999999
  endloop
endfacet
facet normal 3.783969759828994e-16 6.504722338815067e-16 -1.0
  outer loop
    vertex 128.03589679319035 123.68777428246835 9.999999999999972
    vertex 130.3718495266952 132.31666710558517 9.999999999999977
    vertex 128.1867464311723 124.05195752436363 9.999999999999972
  endloop
endfacet
facet normal 3.783969759828994e-16 6.504722338815067e-16 -1.0
  outer loop
    vertex 128.1867464311723 124.05195752436363 9.999999999999972
    vertex 130.3718495266952 132.31666710558517 9.999999999999977
    vertex 128.42671355129514 124.36468876395539 9.999999999999972
  endloop
endfacet
facet normal 3.783969759828994e-16 6.504722338815067e-16 -1.0
  outer loop
    vertex 128.42671355129514 124.36468876395539 9.999999999999972
    vertex 130.3718495266952 132.31666710558517 9.999999999999977
    vertex 128.7394447908868 124.60465588407803 9.999999999999972
  endloop
endfacet
facet normal 3.783969759828994e-16 6.504722338815067e-16 -1.0
  outer loop
    vertex 128.7394447908868 124.60465588407803 9.999999999999972
    vertex 130.3718495266952 132.31666710558517 9.999999999999977
    vertex 128.84615325811166 124.64885597842277 9.999999999999972
  endloop
endfacet
facet normal 3.783969759828994e-16 6.504722338815067e-16 -1.0
  outer loop
    vertex 128.84615325811166 124.64885597842277 9.999999999999972
    vertex 130.3718495266952 132.31666710558517 9.999999999999977
    vertex 129.10362803278204 124.75550552206008 9.999999999999972
  endloop
endfacet
facet normal 3.783969759828994e-16 6.504722338815067e-16 -1.0
  outer loop
    vertex 129.10362803278204 124.75550552206008 9.999999999999972
    vertex 130.3718495266952 132.31666710558517 9.999999999999977
    vertex 129.49444479088683 124.8069575243636 9.999999999999972
  endloop
endfacet
facet normal 3.783969759828994e-16 6.504722338815067e-16 -1.0
  outer loop
    vertex 129.49444479088683 124.8069575243636 9.999999999999972
    vertex 130.3718495266952 132.31666710558517 9.999999999999977
    vertex 129.88526154899165 124.75550552206008 9.999999999999972
  endloop
endfacet
facet normal 3.783969759828994e-16 6.504722338815067e-16 -1.0
  outer loop
    vertex 129.88526154899165 124.75550552206008 9.999999999999972
    vertex 130.3718495266952 132.31666710558517 9.999999999999977
    vertex 130.24944479088686 124.60465588407803 9.999999999999972
  endloop
endfacet
facet normal 3.783969759828994e-16 6.504722338815067e-16 -1.0
  outer loop
    vertex 130.3718495266952 132.31666710558517 9.999999999999977
    vertex 136.2558241229108 144.50801005667498 9.99999999999999
    vertex 131.6218495266952 134.48173061504633 9.999999999999982
  endloop
endfacet
facet normal 3.783969759828994e-16 6.504722338815067e-16 -1.0
  outer loop
    vertex 131.6218495266952 134.48173061504633 9.999999999999982
    vertex 136.2558241229108 144.50801005667498 9.99999999999999
    vertex 135.08595114183296 132.48173061504625 9.999999999999982
  endloop
endfacet
facet normal 3.783969759828994e-16 6.504722338815067e-16 -1.0
  outer loop
    vertex 135.08595114183296 132.48173061504625 9.999999999999982
    vertex 136.2558241229108 144.50801005667498 9.99999999999999
    vertex 135.2330654588629 123.73654008666301 9.999999999999972
  endloop
endfacet
facet normal 3.783969759828994e-16 6.504722338815067e-16 -1.0
  outer loop
    vertex 135.2330654588629 123.73654008666301 9.999999999999972
    vertex 136.2558241229108 144.50801005667498 9.99999999999999
    vertex 137.3291980633796 138.9026107362708 9.99999999999999
  endloop
endfacet
facet normal 3.783969759828994e-16 6.504722338815067e-16 -1.0
  outer loop
    vertex 135.2330654588629 123.73654008666301 9.999999999999972
    vertex 137.3291980633796 138.9026107362708 9.99999999999999
    vertex 137.4800477013616 138.5384274943757 9.99999999999999
  endloop
endfacet
facet normal 3.783969759828994e-16 6.504722338815067e-16 -1.0
  outer loop
    vertex 135.2330654588629 123.73654008666301 9.999999999999972
    vertex 137.4800477013616 138.5384274943757 9.99999999999999
    vertex 137.7200148214844 138.22569625478394 9.99999999999999
  endloop
endfacet
facet normal 3.783969759828994e-16 6.504722338815067e-16 -1.0
  outer loop
    vertex 135.2330654588629 123.73654008666301 9.999999999999972
    vertex 137.7200148214844 138.22569625478394 9.99999999999999
    vertex 141.31966799924137 134.07884493207615 9.99999999999999
  endloop
endfacet
facet normal 3.783969759828994e-16 6.504722338815067e-16 -1.0
  outer loop
    vertex 137.3291980633796 138.9026107362708 9.99999999999999
    vertex 136.2558241229108 144.50801005667498 9.99999999999999
    vertex 137.2777460610761 139.29342749437566 9.99999999999999
  endloop
endfacet
facet normal 3.783969759828994e-16 6.504722338815067e-16 -1.0
  outer loop
    vertex 141.31966799924137 134.07884493207615 9.99999999999999
    vertex 137.7200148214844 138.22569625478394 9.99999999999999
    vertex 138.0327460610761 137.9857291346611 9.99999999999999
  endloop
endfacet
facet normal 3.783969759828994e-16 6.504722338815067e-16 -1.0
  outer loop
    vertex 141.31966799924137 134.07884493207615 9.99999999999999
    vertex 138.0327460610761 137.9857291346611 9.99999999999999
    vertex 138.3969293029713 137.83487949667906 9.99999999999999
  endloop
endfacet
facet normal 3.783969759828994e-16 6.504722338815067e-16 -1.0
  outer loop
    vertex 141.31966799924137 134.07884493207615 9.99999999999999
    vertex 138.3969293029713 137.83487949667906 9.99999999999999
    vertex 138.7877460610761 137.78342749437553 9.99999999999999
  endloop
endfacet
facet normal 3.783969759828994e-16 6.504722338815067e-16 -1.0
  outer loop
    vertex 141.31966799924137 134.07884493207615 9.99999999999999
    vertex 138.7877460610761 137.78342749437553 9.99999999999999
    vertex 139.1785628191809 137.83487949667906 9.99999999999999
  endloop
endfacet
facet normal 3.783969759828994e-16 6.504722338815067e-16 -1.0
  outer loop
    vertex 141.31966799924137 134.07884493207615 9.99999999999999
    vertex 139.1785628191809 137.83487949667906 9.99999999999999
    vertex 139.44279623043866 137.94432855925425 9.99999999999999
  endloop
endfacet
facet normal 3.783969759828994e-16 6.504722338815067e-16 -1.0
  outer loop
    vertex 141.31966799924137 134.07884493207615 9.99999999999999
    vertex 139.44279623043866 137.94432855925425 9.99999999999999
    vertex 139.5427460610761 137.9857291346611 9.99999999999999
  endloop
endfacet
facet normal 3.783969759828994e-16 6.504722338815067e-16 -1.0
  outer loop
    vertex 141.31966799924137 134.07884493207615 9.99999999999999
    vertex 139.5427460610761 137.9857291346611 9.99999999999999
    vertex 139.85547730066776 138.22569625478394 9.99999999999999
  endloop
endfacet
facet normal 3.783969759828994e-16 6.504722338815067e-16 -1.0
  outer loop
    vertex 141.31966799924137 134.07884493207615 9.99999999999999
    vertex 139.85547730066776 138.22569625478394 9.99999999999999
    vertex 140.09544442079059 138.5384274943757 9.99999999999999
  endloop
endfacet
facet normal 3.783969759828994e-16 6.504722338815067e-16 -1.0
  outer loop
    vertex 141.31966799924137 134.07884493207615 9.99999999999999
    vertex 140.09544442079059 138.5384274943757 9.99999999999999
    vertex 140.24629405877258 138.9026107362708 9.99999999999999
  endloop
endfacet
facet normal 3.783969759828994e-16 6.504722338815067e-16 -1.0
  outer loop
    vertex 141.31966799924137 134.07884493207615 9.99999999999999
    vertex 140.24629405877258 138.9026107362708 9.99999999999999
    vertex 140.29774606107608 139.29342749437566 9.99999999999999
  endloop
endfacet
facet normal 3.783969759828994e-16 6.504722338815067e-16 -1.0
  outer loop
    vertex 130.3718495266952 132.31666710558517 9.999999999999977
    vertex 130.56217603047853 124.36468876395539 9.999999999999972
    vertex 130.24944479088686 124.60465588407803 9.999999999999972
  endloop
endfacet
facet normal 3.783969759828994e-16 6.504722338815067e-16 -1.0
  outer loop
    vertex 130.56217603047853 124.36468876395539 9.999999999999972
    vertex 130.3718495266952 132.31666710558517 9.999999999999977
    vertex 133.8359511418329 130.3166671055851 9.999999999999977
  endloop
endfacet
facet normal 3.783969759828994e-16 6.504722338815067e-16 -1.0
  outer loop
    vertex 130.56217603047853 124.36468876395539 9.999999999999972
    vertex 133.8359511418329 130.3166671055851 9.999999999999977
    vertex 130.80214315060132 124.05195752436363 9.999999999999972
  endloop
endfacet
facet normal 3.783969759828994e-16 6.504722338815067e-16 -1.0
  outer loop
    vertex 130.80214315060132 124.05195752436363 9.999999999999972
    vertex 133.8359511418329 130.3166671055851 9.999999999999977
    vertex 130.95299278858334 123.68777428246835 9.999999999999972
  endloop
endfacet
facet normal 3.783969759828994e-16 6.504722338815067e-16 -1.0
  outer loop
    vertex 130.95299278858334 123.68777428246835 9.999999999999972
    vertex 133.8359511418329 130.3166671055851 9.999999999999977
    vertex 131.00444479088682 123.29695752436366 9.999999999999972
  endloop
endfacet
facet normal 3.783969759828994e-16 6.504722338815067e-16 -1.0
  outer loop
    vertex 131.00444479088682 123.29695752436366 9.999999999999972
    vertex 133.8359511418329 130.3166671055851 9.999999999999977
    vertex 131.9830654588629 118.10737496206413 9.999999999999972
  endloop
endfacet
facet normal 3.783969759828994e-16 6.504722338815067e-16 -1.0
  outer loop
    vertex 131.9830654588629 118.10737496206413 9.999999999999972
    vertex 133.8359511418329 130.3166671055851 9.999999999999977
    vertex 135.2330654588629 123.73654008666301 9.999999999999972
  endloop
endfacet
facet normal 3.783969759828994e-16 6.504722338815067e-16 -1.0
  outer loop
    vertex 135.2330654588629 123.73654008666301 9.999999999999972
    vertex 133.8359511418329 130.3166671055851 9.999999999999977
    vertex 135.08595114183296 132.48173061504625 9.999999999999982
  endloop
endfacet
facet normal 3.783969759828994e-16 6.504722338815067e-16 -1.0
  outer loop
    vertex 123.75582412291072 122.85737496206413 9.999999999999972
    vertex 128.42671355129514 122.22922628477193 9.999999999999972
    vertex 131.9830654588629 118.10737496206413 9.999999999999972
  endloop
endfacet
facet normal 3.783969759828994e-16 6.504722338815067e-16 -1.0
  outer loop
    vertex 128.42671355129514 122.22922628477193 9.999999999999972
    vertex 123.75582412291072 122.85737496206413 9.999999999999972
    vertex 128.1867464311723 122.54195752436368 9.999999999999972
  endloop
endfacet
facet normal 3.783969759828994e-16 6.504722338815067e-16 -1.0
  outer loop
    vertex 128.1867464311723 122.54195752436368 9.999999999999972
    vertex 123.75582412291072 122.85737496206413 9.999999999999972
    vertex 128.03589679319035 122.90614076625879 9.999999999999972
  endloop
endfacet
facet normal 3.783969759828994e-16 6.504722338815067e-16 -1.0
  outer loop
    vertex 128.03589679319035 122.90614076625879 9.999999999999972
    vertex 123.75582412291072 122.85737496206413 9.999999999999972
    vertex 127.98444479088683 123.29695752436366 9.999999999999972
  endloop
endfacet
facet normal 3.783969759828994e-16 6.504722338815067e-16 -1.0
  outer loop
    vertex 131.9830654588629 118.10737496206413 9.999999999999972
    vertex 128.42671355129514 122.22922628477193 9.999999999999972
    vertex 128.7394447908868 121.98925916464911 9.999999999999972
  endloop
endfacet
facet normal 3.783969759828994e-16 6.504722338815067e-16 -1.0
  outer loop
    vertex 131.9830654588629 118.10737496206413 9.999999999999972
    vertex 128.7394447908868 121.98925916464911 9.999999999999972
    vertex 129.103628032782 121.83840952666706 9.999999999999972
  endloop
endfacet
facet normal 3.783969759828994e-16 6.504722338815067e-16 -1.0
  outer loop
    vertex 131.9830654588629 118.10737496206413 9.999999999999972
    vertex 129.103628032782 121.83840952666706 9.999999999999972
    vertex 129.49444479088683 121.78695752436353 9.999999999999972
  endloop
endfacet
facet normal 3.783969759828994e-16 6.504722338815067e-16 -1.0
  outer loop
    vertex 131.9830654588629 118.10737496206413 9.999999999999972
    vertex 129.49444479088683 121.78695752436353 9.999999999999972
    vertex 129.88526154899165 121.83840952666706 9.999999999999972
  endloop
endfacet
facet normal 3.783969759828994e-16 6.504722338815067e-16 -1.0
  outer loop
    vertex 131.9830654588629 118.10737496206413 9.999999999999972
    vertex 129.88526154899165 121.83840952666706 9.999999999999972
    vertex 130.142736323662 121.94505907030454 9.999999999999972
  endloop
endfacet
facet normal 3.783969759828994e-16 6.504722338815067e-16 -1.0
  outer loop
    vertex 131.9830654588629 118.10737496206413 9.999999999999972
    vertex 130.142736323662 121.94505907030454 9.999999999999972
    vertex 130.24944479088686 121.98925916464911 9.999999999999972
  endloop
endfacet
facet normal 3.783969759828994e-16 6.504722338815067e-16 -1.0
  outer loop
    vertex 131.9830654588629 118.10737496206413 9.999999999999972
    vertex 130.24944479088686 121.98925916464911 9.999999999999972
    vertex 130.56217603047853 122.22922628477193 9.999999999999972
  endloop
endfacet
facet normal 3.783969759828994e-16 6.504722338815067e-16 -1.0
  outer loop
    vertex 131.9830654588629 118.10737496206413 9.999999999999972
    vertex 130.56217603047853 122.22922628477193 9.999999999999972
    vertex 130.80214315060132 122.54195752436368 9.999999999999972
  endloop
endfacet
facet normal 3.783969759828994e-16 6.504722338815067e-16 -1.0
  outer loop
    vertex 131.9830654588629 118.10737496206413 9.999999999999972
    vertex 130.80214315060132 122.54195752436368 9.999999999999972
    vertex 130.95299278858334 122.90614076625879 9.999999999999972
  endloop
endfacet
facet normal 3.783969759828994e-16 6.504722338815067e-16 -1.0
  outer loop
    vertex 131.9830654588629 118.10737496206413 9.999999999999972
    vertex 130.95299278858334 122.90614076625879 9.999999999999972
    vertex 131.00444479088682 123.29695752436366 9.999999999999972
  endloop
endfacet
facet normal 0.3826834323663807 -0.9238795325107523 0.0
  outer loop
    vertex 128.84615325811166 124.64885597842277 11.999999999999972
    vertex 128.7394447908868 124.60465588407803 9.999999999999972
    vertex 128.84615325811166 124.64885597842277 9.999999999999972
  endloop
endfacet
facet normal 0.3826834323663807 -0.9238795325107523 0.0
  outer loop
    vertex 128.7394447908868 124.60465588407803 9.999999999999972
    vertex 128.84615325811166 124.64885597842277 11.999999999999972
    vertex 128.7394447908868 124.60465588407803 11.999999999999972
  endloop
endfacet
facet normal 0.6087614290084379 -0.7933533402914521 0.0
  outer loop
    vertex 128.7394447908868 124.60465588407803 11.999999999999972
    vertex 128.42671355129514 124.36468876395539 9.999999999999972
    vertex 128.7394447908868 124.60465588407803 9.999999999999972
  endloop
endfacet
facet normal 0.6087614290084379 -0.7933533402914521 0.0
  outer loop
    vertex 128.42671355129514 124.36468876395539 9.999999999999972
    vertex 128.7394447908868 124.60465588407803 11.999999999999972
    vertex 128.42671355129514 124.36468876395539 11.999999999999972
  endloop
endfacet
facet normal -0.38268343236522623 -0.9238795325112305 0.0
  outer loop
    vertex 130.24944479088686 124.60465588407803 11.999999999999972
    vertex 129.88526154899165 124.75550552206008 9.999999999999972
    vertex 130.24944479088686 124.60465588407803 9.999999999999972
  endloop
endfacet
facet normal -0.38268343236522623 -0.9238795325112305 0.0
  outer loop
    vertex 129.88526154899165 124.75550552206008 9.999999999999972
    vertex 130.24944479088686 124.60465588407803 11.999999999999972
    vertex 129.88526154899165 124.75550552206008 11.999999999999972
  endloop
endfacet
facet normal 0.8660254037844397 -0.4999999999999984 -0.0
  outer loop
    vertex 135.2330654588629 123.73654008666301 9.999999999999972
    vertex 131.9830654588629 118.10737496206413 11.999999999999972
    vertex 131.9830654588629 118.10737496206413 9.999999999999972
  endloop
endfacet
facet normal 0.8660254037844397 -0.4999999999999984 -0.0
  outer loop
    vertex 131.9830654588629 118.10737496206413 11.999999999999972
    vertex 135.2330654588629 123.73654008666301 9.999999999999972
    vertex 135.2330654588629 123.73654008666301 11.999999999999972
  endloop
endfacet
facet normal -0.1305261922200962 -0.9914448613738046 0.0
  outer loop
    vertex 129.88526154899165 124.75550552206008 11.999999999999972
    vertex 129.49444479088683 124.8069575243636 9.999999999999972
    vertex 129.88526154899165 124.75550552206008 9.999999999999972
  endloop
endfacet
facet normal -0.1305261922200962 -0.9914448613738046 0.0
  outer loop
    vertex 129.49444479088683 124.8069575243636 9.999999999999972
    vertex 129.88526154899165 124.75550552206008 11.999999999999972
    vertex 129.49444479088683 124.8069575243636 11.999999999999972
  endloop
endfacet
facet normal -0.3826834323652718 0.9238795325112115 -0.0
  outer loop
    vertex 129.88526154899165 121.83840952666706 11.999999999999972
    vertex 130.142736323662 121.94505907030454 9.999999999999972
    vertex 129.88526154899165 121.83840952666706 9.999999999999972
  endloop
endfacet
facet normal -0.3826834323652718 0.9238795325112115 -0.0
  outer loop
    vertex 130.142736323662 121.94505907030454 9.999999999999972
    vertex 129.88526154899165 121.83840952666706 11.999999999999972
    vertex 130.142736323662 121.94505907030454 11.999999999999972
  endloop
endfacet
facet normal -0.8660254037844465 0.49999999999998646 -7.33125351963371e-17
  outer loop
    vertex 131.6218495266952 134.48173061504633 9.999999999999982
    vertex 130.3718495266952 132.31666710558517 8.999999999999979
    vertex 130.3718495266952 132.31666710558517 9.999999999999977
  endloop
endfacet
facet normal -0.8660254037844465 0.49999999999998646 -7.33125351963371e-17
  outer loop
    vertex 130.3718495266952 132.31666710558517 8.999999999999979
    vertex 131.6218495266952 134.48173061504633 9.999999999999982
    vertex 131.6218495266952 134.48173061504633 8.999999999999982
  endloop
endfacet
facet normal 0.5000000000000161 0.8660254037844296 -2.5110341299541787e-17
  outer loop
    vertex 131.6218495266952 134.48173061504633 9.999999999999982
    vertex 135.08595114183296 132.48173061504625 8.999999999999986
    vertex 131.6218495266952 134.48173061504633 8.999999999999982
  endloop
endfacet
facet normal 0.5000000000000161 0.8660254037844296 -2.5110341299541787e-17
  outer loop
    vertex 135.08595114183296 132.48173061504625 8.999999999999986
    vertex 131.6218495266952 134.48173061504633 9.999999999999982
    vertex 135.08595114183296 132.48173061504625 9.999999999999982
  endloop
endfacet
facet normal -5.215428930853698e-16 -8.544611267349755e-16 1.0
  outer loop
    vertex 123.75582412291072 122.85737496206413 11.999999999999972
    vertex 128.03589679319035 122.90614076625879 11.999999999999972
    vertex 127.98444479088683 123.29695752436366 11.999999999999972
  endloop
endfacet
facet normal -5.215428930853698e-16 -8.544611267349755e-16 1.0
  outer loop
    vertex 128.03589679319035 122.90614076625879 11.999999999999972
    vertex 123.75582412291072 122.85737496206413 11.999999999999972
    vertex 128.1867464311723 122.54195752436368 11.999999999999972
  endloop
endfacet
facet normal -5.215428930853698e-16 -8.544611267349755e-16 1.0
  outer loop
    vertex 128.1867464311723 122.54195752436368 11.999999999999972
    vertex 123.75582412291072 122.85737496206413 11.999999999999972
    vertex 128.42671355129514 122.22922628477193 11.999999999999972
  endloop
endfacet
facet normal -5.215428930853698e-16 -8.544611267349755e-16 1.0
  outer loop
    vertex 128.42671355129514 122.22922628477193 11.999999999999972
    vertex 123.75582412291072 122.85737496206413 11.999999999999972
    vertex 131.9830654588629 118.10737496206413 11.999999999999972
  endloop
endfacet
facet normal -5.215428930853698e-16 -8.544611267349755e-16 1.0
  outer loop
    vertex 128.42671355129514 122.22922628477193 11.999999999999972
    vertex 131.9830654588629 118.10737496206413 11.999999999999972
    vertex 128.7394447908868 121.98925916464911 11.999999999999972
  endloop
endfacet
facet normal -5.215428930853698e-16 -8.544611267349755e-16 1.0
  outer loop
    vertex 128.7394447908868 121.98925916464911 11.999999999999972
    vertex 131.9830654588629 118.10737496206413 11.999999999999972
    vertex 129.103628032782 121.83840952666706 11.999999999999972
  endloop
endfacet
facet normal -5.215428930853698e-16 -8.544611267349755e-16 1.0
  outer loop
    vertex 129.103628032782 121.83840952666706 11.999999999999972
    vertex 131.9830654588629 118.10737496206413 11.999999999999972
    vertex 129.49444479088683 121.78695752436353 11.999999999999972
  endloop
endfacet
facet normal -5.215428930853698e-16 -8.544611267349755e-16 1.0
  outer loop
    vertex 129.49444479088683 121.78695752436353 11.999999999999972
    vertex 131.9830654588629 118.10737496206413 11.999999999999972
    vertex 129.88526154899165 121.83840952666706 11.999999999999972
  endloop
endfacet
facet normal -5.215428930853698e-16 -8.544611267349755e-16 1.0
  outer loop
    vertex 129.88526154899165 121.83840952666706 11.999999999999972
    vertex 131.9830654588629 118.10737496206413 11.999999999999972
    vertex 130.142736323662 121.94505907030454 11.999999999999972
  endloop
endfacet
facet normal -5.215428930853698e-16 -8.544611267349755e-16 1.0
  outer loop
    vertex 130.142736323662 121.94505907030454 11.999999999999972
    vertex 131.9830654588629 118.10737496206413 11.999999999999972
    vertex 130.24944479088686 121.98925916464911 11.999999999999972
  endloop
endfacet
facet normal -5.215428930853698e-16 -8.544611267349755e-16 1.0
  outer loop
    vertex 130.24944479088686 121.98925916464911 11.999999999999972
    vertex 131.9830654588629 118.10737496206413 11.999999999999972
    vertex 130.56217603047853 122.22922628477193 11.999999999999972
  endloop
endfacet
facet normal -5.215428930853698e-16 -8.544611267349755e-16 1.0
  outer loop
    vertex 130.56217603047853 122.22922628477193 11.999999999999972
    vertex 131.9830654588629 118.10737496206413 11.999999999999972
    vertex 130.80214315060132 122.54195752436368 11.999999999999972
  endloop
endfacet
facet normal -5.215428930853698e-16 -8.544611267349755e-16 1.0
  outer loop
    vertex 130.80214315060132 122.54195752436368 11.999999999999972
    vertex 131.9830654588629 118.10737496206413 11.999999999999972
    vertex 130.95299278858334 122.90614076625879 11.999999999999972
  endloop
endfacet
facet normal -5.215428930853698e-16 -8.544611267349755e-16 1.0
  outer loop
    vertex 130.95299278858334 122.90614076625879 11.999999999999972
    vertex 131.9830654588629 118.10737496206413 11.999999999999972
    vertex 131.00444479088682 123.29695752436366 11.999999999999972
  endloop
endfacet
facet normal -5.215428930853698e-16 -8.544611267349755e-16 1.0
  outer loop
    vertex 123.75582412291072 122.85737496206413 11.999999999999972
    vertex 128.03589679319035 123.68777428246835 11.999999999999972
    vertex 136.2558241229108 144.50801005667498 11.999999999999991
  endloop
endfacet
facet normal -5.215428930853698e-16 -8.544611267349755e-16 1.0
  outer loop
    vertex 128.03589679319035 123.68777428246835 11.999999999999972
    vertex 123.75582412291072 122.85737496206413 11.999999999999972
    vertex 127.98444479088683 123.29695752436366 11.999999999999972
  endloop
endfacet
facet normal -5.215428930853698e-16 -8.544611267349755e-16 1.0
  outer loop
    vertex 136.2558241229108 144.50801005667498 11.999999999999991
    vertex 128.03589679319035 123.68777428246835 11.999999999999972
    vertex 128.1867464311723 124.05195752436363 11.999999999999972
  endloop
endfacet
facet normal -5.215428930853698e-16 -8.544611267349755e-16 1.0
  outer loop
    vertex 136.2558241229108 144.50801005667498 11.999999999999991
    vertex 128.1867464311723 124.05195752436363 11.999999999999972
    vertex 128.42671355129514 124.36468876395539 11.999999999999972
  endloop
endfacet
facet normal -5.215428930853698e-16 -8.544611267349755e-16 1.0
  outer loop
    vertex 136.2558241229108 144.50801005667498 11.999999999999991
    vertex 128.42671355129514 124.36468876395539 11.999999999999972
    vertex 128.7394447908868 124.60465588407803 11.999999999999972
  endloop
endfacet
facet normal -5.215428930853698e-16 -8.544611267349755e-16 1.0
  outer loop
    vertex 136.2558241229108 144.50801005667498 11.999999999999991
    vertex 128.7394447908868 124.60465588407803 11.999999999999972
    vertex 128.84615325811166 124.64885597842277 11.999999999999972
  endloop
endfacet
facet normal -5.215428930853698e-16 -8.544611267349755e-16 1.0
  outer loop
    vertex 136.2558241229108 144.50801005667498 11.999999999999991
    vertex 128.84615325811166 124.64885597842277 11.999999999999972
    vertex 129.10362803278204 124.75550552206008 11.999999999999972
  endloop
endfacet
facet normal -5.215428930853698e-16 -8.544611267349755e-16 1.0
  outer loop
    vertex 136.2558241229108 144.50801005667498 11.999999999999991
    vertex 129.10362803278204 124.75550552206008 11.999999999999972
    vertex 129.49444479088683 124.8069575243636 11.999999999999972
  endloop
endfacet
facet normal -5.215428930853698e-16 -8.544611267349755e-16 1.0
  outer loop
    vertex 136.2558241229108 144.50801005667498 11.999999999999991
    vertex 129.49444479088683 124.8069575243636 11.999999999999972
    vertex 129.88526154899165 124.75550552206008 11.999999999999972
  endloop
endfacet
facet normal -5.215428930853698e-16 -8.544611267349755e-16 1.0
  outer loop
    vertex 136.2558241229108 144.50801005667498 11.999999999999991
    vertex 129.88526154899165 124.75550552206008 11.999999999999972
    vertex 130.24944479088686 124.60465588407803 11.999999999999972
  endloop
endfacet
facet normal -5.215428930853698e-16 -8.544611267349755e-16 1.0
  outer loop
    vertex 136.2558241229108 144.50801005667498 11.999999999999991
    vertex 130.24944479088686 124.60465588407803 11.999999999999972
    vertex 130.56217603047853 124.36468876395539 11.999999999999972
  endloop
endfacet
facet normal -5.215428930853698e-16 -8.544611267349755e-16 1.0
  outer loop
    vertex 136.2558241229108 144.50801005667498 11.999999999999991
    vertex 130.56217603047853 124.36468876395539 11.999999999999972
    vertex 130.80214315060132 124.05195752436363 11.999999999999972
  endloop
endfacet
facet normal -5.215428930853698e-16 -8.544611267349755e-16 1.0
  outer loop
    vertex 136.2558241229108 144.50801005667498 11.999999999999991
    vertex 130.80214315060132 124.05195752436363 11.999999999999972
    vertex 130.95299278858334 123.68777428246835 11.999999999999972
  endloop
endfacet
facet normal -5.215428930853698e-16 -8.544611267349755e-16 1.0
  outer loop
    vertex 136.2558241229108 144.50801005667498 11.999999999999991
    vertex 130.95299278858334 123.68777428246835 11.999999999999972
    vertex 131.00444479088682 123.29695752436366 11.999999999999972
  endloop
endfacet
facet normal -5.215428930853698e-16 -8.544611267349755e-16 1.0
  outer loop
    vertex 136.2558241229108 144.50801005667498 11.999999999999991
    vertex 131.00444479088682 123.29695752436366 11.999999999999972
    vertex 131.9830654588629 118.10737496206413 11.999999999999972
  endloop
endfacet
facet normal -5.215428930853698e-16 -8.544611267349755e-16 1.0
  outer loop
    vertex 136.2558241229108 144.50801005667498 11.999999999999991
    vertex 131.9830654588629 118.10737496206413 11.999999999999972
    vertex 135.2330654588629 123.73654008666301 11.999999999999972
  endloop
endfacet
facet normal -5.215428930853698e-16 -8.544611267349755e-16 1.0
  outer loop
    vertex 136.2558241229108 144.50801005667498 11.999999999999991
    vertex 135.2330654588629 123.73654008666301 11.999999999999972
    vertex 137.3291980633796 138.9026107362708 11.999999999999991
  endloop
endfacet
facet normal -5.215428930853698e-16 -8.544611267349755e-16 1.0
  outer loop
    vertex 137.3291980633796 138.9026107362708 11.999999999999991
    vertex 135.2330654588629 123.73654008666301 11.999999999999972
    vertex 137.4800477013616 138.5384274943757 11.999999999999991
  endloop
endfacet
facet normal -5.215428930853698e-16 -8.544611267349755e-16 1.0
  outer loop
    vertex 137.4800477013616 138.5384274943757 11.999999999999991
    vertex 135.2330654588629 123.73654008666301 11.999999999999972
    vertex 137.7200148214844 138.22569625478394 11.999999999999991
  endloop
endfacet
facet normal -5.215428930853698e-16 -8.544611267349755e-16 1.0
  outer loop
    vertex 137.7200148214844 138.22569625478394 11.999999999999991
    vertex 135.2330654588629 123.73654008666301 11.999999999999972
    vertex 141.31966799924137 134.07884493207615 11.999999999999991
  endloop
endfacet
facet normal -5.215428930853698e-16 -8.544611267349755e-16 1.0
  outer loop
    vertex 136.2558241229108 144.50801005667498 11.999999999999991
    vertex 137.3291980633796 138.9026107362708 11.999999999999991
    vertex 137.2777460610761 139.29342749437566 11.999999999999991
  endloop
endfacet
facet normal -5.215428930853698e-16 -8.544611267349755e-16 1.0
  outer loop
    vertex 137.7200148214844 138.22569625478394 11.999999999999991
    vertex 141.31966799924137 134.07884493207615 11.999999999999991
    vertex 138.0327460610761 137.9857291346611 11.999999999999991
  endloop
endfacet
facet normal -5.215428930853698e-16 -8.544611267349755e-16 1.0
  outer loop
    vertex 138.0327460610761 137.9857291346611 11.999999999999991
    vertex 141.31966799924137 134.07884493207615 11.999999999999991
    vertex 138.3969293029713 137.83487949667906 11.999999999999991
  endloop
endfacet
facet normal -5.215428930853698e-16 -8.544611267349755e-16 1.0
  outer loop
    vertex 138.3969293029713 137.83487949667906 11.999999999999991
    vertex 141.31966799924137 134.07884493207615 11.999999999999991
    vertex 138.7877460610761 137.78342749437553 11.999999999999991
  endloop
endfacet
facet normal -5.215428930853698e-16 -8.544611267349755e-16 1.0
  outer loop
    vertex 138.7877460610761 137.78342749437553 11.999999999999991
    vertex 141.31966799924137 134.07884493207615 11.999999999999991
    vertex 139.1785628191809 137.83487949667906 11.999999999999991
  endloop
endfacet
facet normal -5.215428930853698e-16 -8.544611267349755e-16 1.0
  outer loop
    vertex 139.1785628191809 137.83487949667906 11.999999999999991
    vertex 141.31966799924137 134.07884493207615 11.999999999999991
    vertex 139.44279623043866 137.94432855925425 11.999999999999991
  endloop
endfacet
facet normal -5.215428930853698e-16 -8.544611267349755e-16 1.0
  outer loop
    vertex 139.44279623043866 137.94432855925425 11.999999999999991
    vertex 141.31966799924137 134.07884493207615 11.999999999999991
    vertex 139.5427460610761 137.9857291346611 11.999999999999991
  endloop
endfacet
facet normal -5.215428930853698e-16 -8.544611267349755e-16 1.0
  outer loop
    vertex 139.5427460610761 137.9857291346611 11.999999999999991
    vertex 141.31966799924137 134.07884493207615 11.999999999999991
    vertex 139.85547730066776 138.22569625478394 11.999999999999991
  endloop
endfacet
facet normal -5.215428930853698e-16 -8.544611267349755e-16 1.0
  outer loop
    vertex 139.85547730066776 138.22569625478394 11.999999999999991
    vertex 141.31966799924137 134.07884493207615 11.999999999999991
    vertex 140.09544442079059 138.5384274943757 11.999999999999991
  endloop
endfacet
facet normal -5.215428930853698e-16 -8.544611267349755e-16 1.0
  outer loop
    vertex 140.09544442079059 138.5384274943757 11.999999999999991
    vertex 141.31966799924137 134.07884493207615 11.999999999999991
    vertex 140.24629405877258 138.9026107362708 11.999999999999991
  endloop
endfacet
facet normal -5.215428930853698e-16 -8.544611267349755e-16 1.0
  outer loop
    vertex 140.24629405877258 138.9026107362708 11.999999999999991
    vertex 141.31966799924137 134.07884493207615 11.999999999999991
    vertex 140.29774606107608 139.29342749437566 11.999999999999991
  endloop
endfacet
facet normal -5.215428930853698e-16 -8.544611267349755e-16 1.0
  outer loop
    vertex 136.2558241229108 144.50801005667498 11.999999999999991
    vertex 139.1785628191809 140.75197549207203 11.999999999999991
    vertex 144.56966799924137 139.70801005667502 11.999999999999991
  endloop
endfacet
facet normal -5.215428930853698e-16 -8.544611267349755e-16 1.0
  outer loop
    vertex 139.1785628191809 140.75197549207203 11.999999999999991
    vertex 136.2558241229108 144.50801005667498 11.999999999999991
    vertex 138.7877460610761 140.80342749437557 11.999999999999991
  endloop
endfacet
facet normal -5.215428930853698e-16 -8.544611267349755e-16 1.0
  outer loop
    vertex 138.7877460610761 140.80342749437557 11.999999999999991
    vertex 136.2558241229108 144.50801005667498 11.999999999999991
    vertex 138.3969293029713 140.75197549207203 11.999999999999991
  endloop
endfacet
facet normal -5.215428930853698e-16 -8.544611267349755e-16 1.0
  outer loop
    vertex 138.3969293029713 140.75197549207203 11.999999999999991
    vertex 136.2558241229108 144.50801005667498 11.999999999999991
    vertex 138.0327460610761 140.60112585409016 11.999999999999991
  endloop
endfacet
facet normal -5.215428930853698e-16 -8.544611267349755e-16 1.0
  outer loop
    vertex 138.0327460610761 140.60112585409016 11.999999999999991
    vertex 136.2558241229108 144.50801005667498 11.999999999999991
    vertex 137.72001482148443 140.36115873396733 11.999999999999991
  endloop
endfacet
facet normal -5.215428930853698e-16 -8.544611267349755e-16 1.0
  outer loop
    vertex 137.72001482148443 140.36115873396733 11.999999999999991
    vertex 136.2558241229108 144.50801005667498 11.999999999999991
    vertex 137.4800477013616 140.0484274943756 11.999999999999991
  endloop
endfacet
facet normal -5.215428930853698e-16 -8.544611267349755e-16 1.0
  outer loop
    vertex 137.4800477013616 140.0484274943756 11.999999999999991
    vertex 136.2558241229108 144.50801005667498 11.999999999999991
    vertex 137.3291980633796 139.68424425248034 11.999999999999991
  endloop
endfacet
facet normal -5.215428930853698e-16 -8.544611267349755e-16 1.0
  outer loop
    vertex 137.3291980633796 139.68424425248034 11.999999999999991
    vertex 136.2558241229108 144.50801005667498 11.999999999999991
    vertex 137.2777460610761 139.29342749437566 11.999999999999991
  endloop
endfacet
facet normal -5.215428930853698e-16 -8.544611267349755e-16 1.0
  outer loop
    vertex 138.3969293029713 140.75197549207203 11.999999999999991
    vertex 138.0327460610761 140.60112585409016 11.999999999999991
    vertex 138.1326958917135 140.64252642949702 11.999999999999991
  endloop
endfacet
facet normal -5.215428930853698e-16 -8.544611267349755e-16 1.0
  outer loop
    vertex 144.56966799924137 139.70801005667502 11.999999999999991
    vertex 139.1785628191809 140.75197549207203 11.999999999999991
    vertex 139.5427460610761 140.60112585409016 11.999999999999991
  endloop
endfacet
facet normal -5.215428930853698e-16 -8.544611267349755e-16 1.0
  outer loop
    vertex 144.56966799924137 139.70801005667502 11.999999999999991
    vertex 139.5427460610761 140.60112585409016 11.999999999999991
    vertex 139.85547730066776 140.36115873396733 11.999999999999991
  endloop
endfacet
facet normal -5.215428930853698e-16 -8.544611267349755e-16 1.0
  outer loop
    vertex 144.56966799924137 139.70801005667502 11.999999999999991
    vertex 139.85547730066776 140.36115873396733 11.999999999999991
    vertex 140.09544442079059 140.0484274943756 11.999999999999991
  endloop
endfacet
facet normal -5.215428930853698e-16 -8.544611267349755e-16 1.0
  outer loop
    vertex 144.56966799924137 139.70801005667502 11.999999999999991
    vertex 140.09544442079059 140.0484274943756 11.999999999999991
    vertex 140.24629405877258 139.68424425248034 11.999999999999991
  endloop
endfacet
facet normal -5.215428930853698e-16 -8.544611267349755e-16 1.0
  outer loop
    vertex 144.56966799924137 139.70801005667502 11.999999999999991
    vertex 140.24629405877258 139.68424425248034 11.999999999999991
    vertex 140.29774606107608 139.29342749437566 11.999999999999991
  endloop
endfacet
facet normal -5.215428930853698e-16 -8.544611267349755e-16 1.0
  outer loop
    vertex 144.56966799924137 139.70801005667502 11.999999999999991
    vertex 140.29774606107608 139.29342749437566 11.999999999999991
    vertex 141.31966799924137 134.07884493207615 11.999999999999991
  endloop
endfacet
endsolid AutoSave_Robô_Omni_3_Eixos_1
